<?xml version="1.0" encoding="utf-8"?>
<!-- Generator: Adobe Illustrator 21.1.0, SVG Export Plug-In . SVG Version: 6.00 Build 0)  -->
<svg version="1.1" id="Capa_1" xmlns="http://www.w3.org/2000/svg" xmlns:xlink="http://www.w3.org/1999/xlink" x="0px" y="0px"
	 viewBox="0 0 691 68" style="enable-background:new 0 0 691 68;" xml:space="preserve">
<style type="text/css">
	.st0{clip-path:url(#SVGID_2_);}
	.st1{fill:#E2E2E2;}
</style>
<g>
	<g>
		<defs>
			<rect id="SVGID_1_" width="691" height="74"/>
		</defs>
		<clipPath id="SVGID_2_">
			<use xlink:href="#SVGID_1_"  style="overflow:visible;"/>
		</clipPath>
		<g class="st0">
			<path class="st1" d="M732-25l0.6,25.1C657,0,636,11,620.5,20.4c-16.6,10.1-33.2,24.7-63.5,25.7s-46-10.6-61.1-22.8
				c-15.1-12.1-29.3-20.6-57.7-19.6c-28.3,0.9-41.8,13.2-56.1,26.3c-14.4,13.1-29.2,29.7-59.5,30.7s-45.9-14.6-61.1-26.8
				c-15.1-12.1-29.3-23.6-57.7-22.6c-28.3,0.9-41.8,13.2-56.1,26.3c-14.2,13-29.1,26.6-59.3,27.6c-30.3,1-45.9-11.6-61.1-23.8
				C12.2,29.3-2,17.8-30.4,18.8l-0.9-29.6"/>
		</g>
	</g>
</g>
</svg>
