<?xml version="1.0" encoding="utf-8"?>
<!-- Generator: Adobe Illustrator 21.1.0, SVG Export Plug-In . SVG Version: 6.00 Build 0)  -->
<svg version="1.1" id="Capa_1" xmlns="http://www.w3.org/2000/svg" xmlns:xlink="http://www.w3.org/1999/xlink" x="0px" y="0px"
	 viewBox="0 0 691 89" style="enable-background:new 0 0 691 89;" xml:space="preserve">
<style type="text/css">
	.st0{clip-path:url(#SVGID_2_);}
	.st1{fill:#00A295;}
</style>
<g>
	<g>
		<defs>
			<rect id="SVGID_1_" y="-2.7" width="691" height="91.7"/>
		</defs>
		<clipPath id="SVGID_2_">
			<use xlink:href="#SVGID_1_"  style="overflow:visible;"/>
		</clipPath>
		<g class="st0">
			<path class="st1" d="M-102,98l1.4-36.5C-65.2,63-47.3,49-28.3,34.3C-9.2,19.4,10.6,4.1,48.4,5.6c37.8,1.6,56.3,18.4,74.1,34.8
				c17.7,16.2,34.5,31.6,69.9,33c35.4,1.4,53.3-12.5,72.3-27.3c19.1-14.8,38.9-30.1,76.7-28.6c37.8,1.6,56.3,18.5,74.1,34.8
				c17.7,16.2,34.5,31.6,69.9,33s53.3-12.5,72.3-27.3c19.1-14.8,38.9-30.1,76.7-28.6c37.8,1.6,56.3,18.5,74.1,34.8
				c17.7,16.2,34.5,31.6,69.9,33L778,111"/>
		</g>
	</g>
</g>
</svg>
