<?xml version="1.0" encoding="utf-8"?>
<!-- Generator: Adobe Illustrator 21.1.0, SVG Export Plug-In . SVG Version: 6.00 Build 0)  -->
<svg version="1.1" id="Capa_1" xmlns="http://www.w3.org/2000/svg" xmlns:xlink="http://www.w3.org/1999/xlink" x="0px" y="0px"
	 viewBox="0 0 691 89" style="enable-background:new 0 0 691 89;" xml:space="preserve">
<style type="text/css">
	.st0{clip-path:url(#SVGID_2_);}
	.st1{fill:#1A4641;}
</style>
<g>
	<g>
		<defs>
			<rect id="SVGID_1_" y="-2.7" width="691" height="91.7"/>
		</defs>
		<clipPath id="SVGID_2_">
			<use xlink:href="#SVGID_1_"  style="overflow:visible;"/>
		</clipPath>
		<g class="st0">
			<path class="st1" d="M-7,91.2l1-28.6c27.8,1.1,41.8-9.9,56.6-21.4c14.9-11.7,30.4-23.7,60.1-22.6c29.6,1.2,44.2,14.3,58.1,27.2
				c13.9,12.7,27.1,24.7,54.8,25.8s41.8-9.9,56.6-21.5c14.9-11.6,30.4-23.7,60.1-22.5c29.6,1.2,44.2,14.4,58.1,27.2
				c13.9,12.7,27.1,24.7,54.8,25.8c27.8,1,41.8-9.9,56.6-21.5c14.9-11.6,30.4-23.7,60.1-22.5c29.6,1.2,44.2,14.4,58.1,27.2
				c13.9,12.7,27.1,24.7,54.8,25.8l-0.3,10.8"/>
		</g>
	</g>
</g>
</svg>
