<?xml version="1.0" encoding="utf-8"?>
<!-- Generator: Adobe Illustrator 21.1.0, SVG Export Plug-In . SVG Version: 6.00 Build 0)  -->
<svg version="1.1" id="Capa_1" xmlns="http://www.w3.org/2000/svg" xmlns:xlink="http://www.w3.org/1999/xlink" x="0px" y="0px"
	 viewBox="0 0 691 89" style="enable-background:new 0 0 691 89;" xml:space="preserve">
<style type="text/css">
	.st0{clip-path:url(#SVGID_2_);}
	.st1{fill:#00A295;}
</style>
<g>
	<defs>
		<rect id="SVGID_1_" width="691" height="388.7"/>
	</defs>
	<clipPath id="SVGID_2_">
		<use xlink:href="#SVGID_1_"  style="overflow:visible;"/>
	</clipPath>
	<g class="st0">
		<path class="st1" d="M778-22l0.4,13.8c-35.4,1.4-52.2,16.8-69.9,33c-17.8,16.3-36.3,33.2-74.1,34.8c-37.8,1.5-57.6-13.8-76.7-28.6
			c-19-14.8-36.9-28.7-72.3-27.3c-35.4,1.4-52.2,16.8-69.9,33c-17.8,16.3-36.3,33.2-74.1,34.8c-37.8,1.5-57.6-13.8-76.7-28.6
			c-19-14.8-36.9-28.7-72.3-27.3c-35.4,1.4-52.2,16.8-69.9,33C104.7,65,86.2,81.8,48.4,83.4C10.6,84.9-9.2,69.6-28.3,54.7
			C-47.3,40-65.2,26-100.6,27.5L-102-9"/>
	</g>
</g>
</svg>
