<?xml version="1.0" encoding="utf-8"?>
<!-- Generator: Adobe Illustrator 21.1.0, SVG Export Plug-In . SVG Version: 6.00 Build 0)  -->
<svg version="1.1" id="Capa_1" xmlns="http://www.w3.org/2000/svg" xmlns:xlink="http://www.w3.org/1999/xlink" x="0px" y="0px"
	 viewBox="0 0 151 151" style="enable-background:new 0 0 151 151;" xml:space="preserve">
<style type="text/css">
	.st0{fill:url(#SVGID_1_);}
	.st1{clip-path:url(#SVGID_3_);}
	.st2{opacity:0.1;}
	.st3{opacity:0.15;}
	.st4{fill:#001E1A;}
	.st5{fill:#00382D;}
	.st6{fill:#FFFFFF;}
</style>
<g>
	<g>
		
			<radialGradient id="SVGID_1_" cx="92" cy="95.5" r="102.8251" gradientTransform="matrix(1 0 0 -1 0 152)" gradientUnits="userSpaceOnUse">
			<stop  offset="0" style="stop-color:#13BF9E"/>
			<stop  offset="1" style="stop-color:#0A796E"/>
		</radialGradient>
		<path class="st0" d="M125.5,150.5h-100c-13.8,0-25-11.2-25-25v-100c0-13.8,11.2-25,25-25h100c13.8,0,25,11.2,25,25v100
			C150.5,139.2,139.2,150.5,125.5,150.5z"/>
	</g>
	<g>
		<g>
			<defs>
				<path id="SVGID_2_" d="M125.5,150.5h-100c-13.8,0-25-11.2-25-25v-100c0-13.8,11.2-25,25-25h100c13.8,0,25,11.2,25,25v100
					C150.5,139.2,139.2,150.5,125.5,150.5z"/>
			</defs>
			<clipPath id="SVGID_3_">
				<use xlink:href="#SVGID_2_"  style="overflow:visible;"/>
			</clipPath>
			<g class="st1">
				<g class="st2">
					<path d="M-115.4-15.9l-0.2,135c31.4,0,40.1,4.5,46.5,8.4c6.9,4.2,13.8,10.3,26.3,10.7s19.1-4.4,25.4-9.5
						c6.3-5,12.2-8.5,23.9-8.2c11.8,0.4,17.4,5.5,23.3,10.9c6,5.5,12.1,12.3,24.7,12.7S73.6,138,79.9,133s12.2-9.8,23.9-9.4
						c11.8,0.4,17.4,5.5,23.3,10.9c6,5.5,12.1,11.1,24.7,11.5c12.6,0.4,19.1-4.8,25.4-9.9c6.3-5,12.2-9.8,23.9-9.4l0.4-136.9"/>
				</g>
				<g class="st3">
					<path d="M-108.1-23.5l-0.2,94.1c31.4,0,40.1,4.5,46.5,8.4c6.9,4.2,13.8,10.3,26.3,10.7c12.6,0.4,19.1-4.4,25.4-9.5
						c6.3-5,12.2-8.5,23.9-8.2c11.8,0.4,17.4,5.5,23.3,10.9c6,5.5,12.1,12.3,24.7,12.7c12.6,0.4,19.1-6.1,25.4-11.1
						c6.3-5,12.2-9.8,23.9-9.4c11.8,0.4,17.4,5.5,23.3,10.9c6,5.5,12.1,11.1,24.7,11.5c12.6,0.4,19.1-4.8,25.4-9.9
						c6.3-5,12.2-9.8,23.9-9.4l0.4-96"/>
				</g>
				<g class="st3">
					<path d="M-93.5-9.4l-0.2,104.1c31.4,0,40.1,4.5,46.5,8.4c6.9,4.2,13.8,10.3,26.3,10.7s19.1-4.4,25.4-9.5
						c6.3-5,12.2-8.5,23.9-8.2c11.8,0.4,17.4,5.5,23.3,10.9c6,5.5,12.1,12.3,24.7,12.7c12.6,0.4,19.1-6.1,25.4-11.1
						s12.2-9.8,23.9-9.4c11.8,0.4,17.4,5.5,23.3,10.9c6,5.5,12.1,11.1,24.7,11.5c12.6,0.4,19.1-4.8,25.4-9.9
						c6.3-5,12.2-9.8,23.9-9.4l0.4-106"/>
				</g>
			</g>
		</g>
	</g>
	<g>
		<path class="st4" d="M44.2,32.9c7.2,0,13.1,5.9,13.1,13.1s-5.9,13.1-13.1,13.1S31.1,53.2,31.1,46C31.1,38.8,37,32.9,44.2,32.9"/>
		<rect x="14" y="11.8" class="st5" width="60.4" height="18.9"/>
		<path class="st6" d="M36.9,39.9c2.1,0,3.8,1.7,3.8,3.8s-1.7,3.8-3.8,3.8s-3.8-1.7-3.8-3.8S34.7,39.9,36.9,39.9"/>
		<path class="st6" d="M40,35.4c1.1,0,1.9,0.9,1.9,1.9c0,1.1-0.9,1.9-1.9,1.9s-1.9-0.9-1.9-1.9S39,35.4,40,35.4"/>
	</g>
	<g>
		<path class="st4" d="M117.7,32.8c6.7,0,12,5.4,12,12s-5.4,12-12,12c-6.7,0-12-5.4-12-12S111.1,32.8,117.7,32.8"/>
		<rect x="93.3" y="15.8" class="st5" width="48.8" height="15.3"/>
		<path class="st6" d="M111,39.3c1.9,0,3.5,1.6,3.5,3.5s-1.6,3.5-3.5,3.5s-3.5-1.6-3.5-3.5C107.4,40.9,109,39.3,111,39.3"/>
		<path class="st6" d="M113.9,35.2c1,0,1.8,0.8,1.8,1.8s-0.8,1.8-1.8,1.8s-1.8-0.8-1.8-1.8S112.9,35.2,113.9,35.2"/>
	</g>
	<path class="st6" d="M102.1,57.6c0,7.9-8.3,14.2-18.6,14.2s-18.6-6.4-18.6-14.2"/>
</g>
</svg>
