<?xml version="1.0" encoding="utf-8"?>
<!-- Generator: Adobe Illustrator 21.1.0, SVG Export Plug-In . SVG Version: 6.00 Build 0)  -->
<svg version="1.1" id="Capa_1" xmlns="http://www.w3.org/2000/svg" xmlns:xlink="http://www.w3.org/1999/xlink" x="0px" y="0px"
	 viewBox="0 0 691 389" style="enable-background:new 0 0 691 389;" xml:space="preserve">
<style type="text/css">
	.st0{clip-path:url(#SVGID_2_);}
	.st1{opacity:0.2;}
	.st2{opacity:0.4;}
	.st3{opacity:0.1;}
</style>
<g>
	<defs>
		<rect id="SVGID_1_" width="691" height="388.7"/>
	</defs>
	<clipPath id="SVGID_2_">
		<use xlink:href="#SVGID_1_"  style="overflow:visible;"/>
	</clipPath>
	<g class="st0">
		<g>
			<path class="st1" d="M685-130.5l17.3,272.1c-28.5,1.8-41.7,14.5-55.7,27.9c-14.1,13.5-28.6,27.5-59.1,29.4
				c-30.5,1.9-46.7-10.1-62.3-21.7c-15.6-11.5-30.3-22.4-58.8-20.6c-28.5,1.8-41.7,14.5-55.7,27.9c-14.1,13.5-28.6,27.5-59.1,29.4
				c-30.5,1.9-46.7-10.1-62.3-21.7c-15.6-11.5-30.3-22.4-58.8-20.6c-28.5,1.8-41.7,14.5-55.7,27.9c-14.1,13.5-28.6,27.5-59.1,29.4
				c-30.5,1.9-46.7-10.1-62.3-21.7c-15.6-11.5-30.3-22.4-58.8-20.6L-22.8-85.4"/>
			<path class="st2" d="M778.5-260.6V44.1c-31.9,0-47.6,13.2-64.1,27.2c-16.6,14.1-33.9,28.6-68,28.6s-51.3-14.5-68-28.6
				c-16.6-14-32.2-27.2-64.1-27.2c-31.9,0-47.6,13.2-64.1,27.2c-16.6,14.1-33.9,28.6-68,28.6c-34.1,0-51.3-14.5-68-28.6
				c-16.6-14-32.2-27.2-64.1-27.2c-31.9,0-47.6,13.2-64.1,27.2c-16.6,14.1-33.9,28.6-68,28.6c-34.1,0-51.3-14.5-68-28.6
				C33.5,57.3,17.9,44.1-14,44.1v-304.7"/>
		</g>
		<path class="st3" d="M703.3-130.1l44.1,335.3c-35.1,4.6-50.4,21.4-66.6,39.2c-16.3,17.9-33.1,36.4-70.7,41.3
			c-37.5,4.9-58.6-8.6-79-21.6c-20.2-13-39.4-25.2-74.5-20.6c-35.1,4.6-50.4,21.4-66.6,39.2C373.8,300.5,357,319,319.4,324
			c-37.5,4.9-58.6-8.6-78.9-21.6c-20.2-13-39.4-25.2-74.5-20.6c-35.1,4.6-50.4,21.4-66.6,39.2c-16.3,17.9-33.1,36.4-70.7,41.3
			c-37.5,4.9-58.6-8.6-78.9-21.6c-20.2-13-39.4-25.2-74.5-20.6l-44.1-335.3"/>
	</g>
</g>
</svg>
