<?xml version="1.0" encoding="utf-8"?>
<!-- Generator: Adobe Illustrator 21.1.0, SVG Export Plug-In . SVG Version: 6.00 Build 0)  -->
<svg version="1.1" id="Capa_1" xmlns="http://www.w3.org/2000/svg" xmlns:xlink="http://www.w3.org/1999/xlink" x="0px" y="0px"
	 viewBox="0 0 691 63" style="enable-background:new 0 0 691 63;" xml:space="preserve">
<style type="text/css">
	.st0{clip-path:url(#SVGID_2_);}
	.st1{fill:#E2E2E2;}
</style>
<g>
	<defs>
		<rect id="SVGID_1_" y="-11" width="691" height="74"/>
	</defs>
	<clipPath id="SVGID_2_">
		<use xlink:href="#SVGID_1_"  style="overflow:visible;"/>
	</clipPath>
	<g class="st0">
		<path class="st1" d="M618,88l0.6-25.1C543,63,522,52,506.5,42.6c-16.6-10.1-33.2-24.7-63.5-25.7c-30.3-1-46,10.6-61.1,22.8
			c-15.1,12.1-29.3,20.6-57.7,19.6c-28.3-0.9-41.8-13.2-56.1-26.3C253.8,19.9,239,3.3,208.7,2.4c-30.3-1-45.9,14.6-61.1,26.8
			c-15.1,12.1-29.3,23.6-57.7,22.6c-28.3-0.9-41.8-13.2-56.1-26.3C19.5,12.4,4.6-1.2-25.6-2.2c-30.3-1-45.9,11.6-61.1,23.8
			c-15.1,12.1-29.3,23.6-57.7,22.6l-0.9,29.6"/>
	</g>
</g>
</svg>
