<?xml version="1.0" encoding="utf-8"?>
<!-- Generator: Adobe Illustrator 21.1.0, SVG Export Plug-In . SVG Version: 6.00 Build 0)  -->
<svg version="1.1" id="Capa_1" xmlns="http://www.w3.org/2000/svg" xmlns:xlink="http://www.w3.org/1999/xlink" x="0px" y="0px"
	 viewBox="0 0 691 74" style="enable-background:new 0 0 691 74;" xml:space="preserve">
<style type="text/css">
	.st0{clip-path:url(#SVGID_2_);}
	.st1{fill:#FFFFFF;}
</style>
<g>
	<defs>
		<rect id="SVGID_1_" width="691" height="74"/>
	</defs>
	<clipPath id="SVGID_2_">
		<use xlink:href="#SVGID_1_"  style="overflow:visible;"/>
	</clipPath>
	<g class="st0">
		<path class="st1" d="M681.2-10.9l0.3,10.7c-32.6,1.1-48.2,13.5-64.7,26.6c-16.6,13.2-33.8,26.9-68.6,28
			c-34.8,1.1-52.8-11.4-70.3-23.5c-17.3-12-33.7-23.4-66.3-22.4C379.1,9.5,363.5,21.9,347,35c-16.6,13.2-33.8,26.9-68.6,28
			c-34.8,1.1-52.8-11.4-70.3-23.5c-17.3-12-33.7-23.4-66.3-22.4c-32.6,1.1-48.2,13.5-64.7,26.6C60.5,57,43.4,70.6,8.5,71.7
			c-34.8,1.1-52.8-11.4-70.3-23.5C-79,36.2-95.4,24.8-128,25.9l-0.9-29.6"/>
	</g>
</g>
</svg>
